HIERARCHY
ROOT Hips
{
	OFFSET 0.00000 0.00000 0.00000
	CHANNELS 6 Xposition Yposition Zposition Yrotation Zrotation Xrotation 
	JOINT Lumbar
	{
		OFFSET 0 0 0
		CHANNELS 3 Zrotation Xrotation Yrotation
		JOINT Neck
		{
			OFFSET 0.00 0.2701 0.00
			CHANNELS 3 Zrotation Xrotation Yrotation
			End Site
			{
				OFFSET 0.00 0.1379 0.00
			}
		}
		JOINT RightShoulder
		{
			OFFSET 0.0119 0.2289 0.1181
			CHANNELS 3 Zrotation Xrotation Yrotation
			JOINT RightElbow
			{
				OFFSET 0.00 -0.1475 0.00
				CHANNELS 2 Zrotation Yrotation
				JOINT RightWrist
				{
					OFFSET 0.00 -0.1605 0.00
					CHANNELS 2 Zrotation Xrotation
					End Site
					{
						OFFSET 0.0040 -0.1068 0.0006
					}
				}
			}
		}
		JOINT LeftShoulder
		{
			OFFSET 0.0119 0.2289 -0.1181
			CHANNELS 3 Zrotation Xrotation Yrotation
			JOINT LeftElbow
			{
				OFFSET 0.00 -0.1475 0.00
				CHANNELS 2 Zrotation Yrotation
				JOINT LeftWrist
				{
					OFFSET 0.00 -0.1605 0.00
					CHANNELS 2 Zrotation Xrotation
					End Site
					{
						OFFSET 0.0040 -0.1068 -0.0006
					}
				}
			}
		}
	}
	JOINT RightHip
	{
		OFFSET 0.0316 -0.0424 0.0458
		CHANNELS 3 Zrotation Xrotation Yrotation
		JOINT RightKnee
		{
			OFFSET 0.00 -0.2438 0.00
			CHANNELS 1 Zrotation
			JOINT RightAnkle
			{
				OFFSET 0.00 -0.2449 0.00
				CHANNELS 3 Zrotation Xrotation Yrotation
				End Site
				{
					OFFSET 0.1237 -0.0542 0.0051
				}
			}
		}
	}
	JOINT LeftHip
	{
		OFFSET 0.0316 -0.0424 -0.0458
		CHANNELS 3 Zrotation Xrotation Yrotation
		JOINT LeftKnee
		{
			OFFSET 0.00 -0.2438 0.00
			CHANNELS 1 Zrotation
			JOINT LeftAnkle
			{
				OFFSET 0.00 -0.2449 0.00
				CHANNELS 3 Zrotation Xrotation Yrotation
				End Site
				{
					OFFSET 0.1237 -0.0542 -0.0051
				}
			}
		}
	}
}
MOTION
Frames: 26
Frame Time: 0.02
0 0.57926 0 177.48573 0 4.85996 9.38362 -3.23979 -2.42404 -35.83216 2.8495 5.09784 26.29647 -15.16767 6.25997 10.45877 84.56558 1.67264 1.96326 30.09216 3.1255 -20.46401 7.54823 -64.59565 -5.23339 -6.55925 1.64988 1.2999 13.18322 -22.48496 13.0112 -10.74608 -13.10456 0.24036 -5.77037 -8.267 -15.37447 7.8988 6.6062 11.09779
5e-05 0.5796 5e-05 177.37961 0 4.57711 9.50737 -2.97978 -2.39064 -36.47788 2.93269 5.3858 26.85308 -15.45661 6.35887 10.40063 84.5922 1.73124 2.03514 30.80454 2.83054 -20.70067 7.41491 -64.43454 -5.20925 -6.5184 1.52152 1.52331 12.98967 -22.09939 12.75481 -10.46155 -13.03429 0.25575 -5.50512 -8.20804 -15.43542 7.94893 6.62389 11.14549
0.0001 0.57994 9e-05 177.27435 0 4.29761 9.62954 -2.72286 -2.35801 -37.11605 3.01467 5.6704 27.40323 -15.74202 6.45671 10.34328 84.61878 1.78925 2.10629 31.50849 2.53928 -20.9347 7.28335 -64.27396 -5.18554 -6.47797 1.39493 1.74422 12.79914 -21.71899 12.50162 -10.18062 -12.96516 0.27118 -5.24304 -8.14953 -15.4963 7.99875 6.64145 11.19278
0.00014 0.58026 0.00014 177.17193 0 4.02976 9.74632 -2.47683 -2.32831 -37.72845 3.09224 5.9436 27.93129 -16.01512 6.5508 10.28866 84.64535 1.84541 2.17542 32.18362 2.26095 -21.15995 7.15799 -64.11549 -5.16324 -6.43904 1.27421 1.95638 12.61916 -21.356 12.25936 -9.91204 -12.90018 0.28656 -4.99195 -8.0924 -15.5566 8.04747 6.6583 11.23854
0.0002 0.58066 0.00019 177.05502 0 3.70144 9.89134 -2.17437 -2.2833 -38.47509 3.1927 6.27622 28.57431 -16.35218 6.66422 10.21972 84.67185 1.91131 2.25546 33.00893 1.91534 -21.43104 7.00032 -63.94772 -5.13338 -6.39242 1.12246 2.21379 12.38376 -20.90141 11.95997 -9.57894 -12.81352 0.30176 -4.68371 -8.02814 -15.61886 8.10159 6.67847 11.29196
0.00023 0.58089 0.00022 176.9685 0 3.50049 9.97672 -1.99075 -2.27057 -38.93858 3.24498 6.4835 28.97494 -16.5545 6.73699 10.18104 84.69854 1.9566 2.31219 33.5175 1.71155 -21.60538 6.91078 -63.79851 -5.11962 -6.36193 1.03642 2.376 12.26548 -20.64059 11.78121 -9.38203 -12.77261 0.31762 -4.49594 -7.97894 -15.67767 8.14456 6.69192 11.32943
0.00016 0.58066 0.00015 176.96953 0 3.66576 9.89155 -2.14908 -2.351 -38.59174 3.15809 6.33215 28.68115 -16.36953 6.69227 10.22863 84.72596 1.94365 2.30525 33.1192 1.91489 -21.50383 7.01688 -63.70865 -5.15075 -6.37836 1.13681 2.26363 12.48155 -20.93079 11.94712 -9.57461 -12.86278 0.33338 -4.65391 -7.97221 -15.72213 8.15417 6.68383 11.31985
6e-05 0.58027 5e-05 177.00052 0 3.95699 9.74717 -2.42489 -2.4633 -37.96421 3.02365 6.05658 28.1472 -16.05127 6.60737 10.30628 84.75351 1.91017 2.2747 32.40703 2.25863 -21.30632 7.19044 -63.6358 -5.19808 -6.41063 1.30275 2.05724 12.81363 -21.4139 12.23282 -9.90231 -12.99802 0.35023 -4.93115 -7.98054 -15.76422 8.15307 6.66954 11.29479
-2e-05 0.57997 -4e-05 177.01552 0 4.18162 9.63355 -2.63842 -2.55858 -37.48266 2.91481 5.84558 27.73864 -15.80342 6.54423 10.3685 84.78096 1.88685 2.25442 31.85832 2.52851 -21.15796 7.32848 -63.5499 -5.2378 -6.43417 1.43562 1.90123 13.08646 -21.79889 12.4565 -10.15988 -13.11007 0.36773 -5.14573 -7.98136 -15.81039 8.15845 6.65998 11.27868
-0.00011 0.57962 -0.00014 177.04077 0 4.44637 9.50362 -2.89009 -2.66482 -36.92198 2.78898 5.59964 27.26037 -15.51346 6.4665 10.4383 84.80876 1.85981 2.23587 31.22002 2.8414 -20.98532 7.48729 -63.48694 -5.27867 -6.46434 1.58229 1.71264 13.38879 -22.22837 12.7124 -10.45476 -13.2349 0.38009 -5.39658 -7.98489 -15.84323 8.15673 6.6422 11.25419
-0.0002 0.57932 -0.00021 177.05149 0 4.65665 9.39367 -3.08942 -2.75545 -36.46122 2.68743 5.39783 26.87172 -15.28033 6.4094 10.49932 84.83564 1.8359 2.2084 30.69594 3.09729 -20.84161 7.61855 -63.37964 -5.32084 -6.48429 1.71583 1.56994 13.65476 -22.61051 12.92933 -10.70341 -13.3421 0.40378 -5.5995 -7.98646 -15.9041 8.16762 6.64023 11.24385
-0.00027 0.57922 -0.00022 177.01729 0 4.69334 9.35235 -3.12291 -2.79847 -36.3284 2.66273 5.34034 26.77577 -15.22947 6.42097 10.52991 84.86184 1.8235 2.15961 30.54417 3.16878 -20.79072 7.66048 -63.15082 -5.36404 -6.47354 1.79743 1.5737 13.81353 -22.82037 13.01245 -10.79696 -13.40441 0.45601 -5.64737 -7.9778 -16.03684 8.21305 6.68225 11.27299
-0.00033 0.57918 -0.00019 176.96706 0 4.66972 9.333 -3.09854 -2.82421 -36.30798 2.66431 5.33267 26.78009 -15.24138 6.45442 10.55054 84.8868 1.81534 2.1031 30.5209 3.17718 -20.77371 7.67206 -62.87586 -5.40785 -6.45169 1.8639 1.62732 13.92786 -22.97578 13.05197 -10.83861 -13.44477 0.52044 -5.64195 -7.96672 -16.19968 8.27222 6.7407 11.31734
-0.0004 0.57911 -0.00018 176.92239 0 4.66836 9.30476 -3.09546 -2.8555 -36.24824 2.65523 5.30786 26.74831 -15.22978 6.47648 10.57478 84.91099 1.80668 2.05181 30.45312 3.20909 -20.74882 7.69502 -62.61868 -5.45035 -6.43404 1.93655 1.66043 14.04814 -23.15131 13.10894 -10.89989 -13.48537 0.58043 -5.65635 -7.95766 -16.35193 8.32684 6.79229 11.35719
-0.00046 0.57902 -0.00017 176.88566 0 4.692 9.2714 -3.11654 -2.89701 -36.13298 2.63964 5.25701 26.6712 -15.19386 6.50284 10.60337 84.94058 1.79137 1.99263 30.31983 3.26578 -20.69106 7.72929 -62.37548 -5.49735 -6.42059 2.01273 1.68183 14.23186 -23.34944 13.17861 -10.98117 -13.56825 0.63424 -5.69238 -7.94576 -16.48835 8.37336 6.84074 11.38713
-0.00052 0.579 -0.00015 176.82867 0 4.649 9.25275 -3.07339 -2.91351 -36.15878 2.64376 5.27196 26.71168 -15.22335 6.5265 10.62086 84.95893 1.79105 1.94818 30.35248 3.25643 -20.70825 7.73346 -62.0921 -5.53544 -6.39548 2.07925 1.73987 14.27233 -23.48963 13.21173 -11.00849 -13.55773 0.70577 -5.67051 -7.93835 -16.66833 8.44089 6.90016 11.44049
-0.00056 0.57918 -5e-05 176.71534 0 4.42398 9.28618 -2.85485 -2.8579 -36.59099 2.7024 5.47363 27.08654 -15.43515 6.53322 10.60383 84.94379 1.83253 1.94777 30.85846 3.05862 -20.94893 7.64829 -61.71022 -5.54373 -6.34172 2.10459 1.89445 13.91862 -23.44363 13.13873 -10.88352 -13.28994 0.80666 -5.48925 -7.94831 -16.93253 8.55701 6.98191 11.56288
-0.00059 0.57943 7e-05 176.58273 0 4.13567 9.33072 -2.57536 -2.77875 -37.15488 2.77907 5.7374 27.57161 -15.70833 6.53766 10.57704 84.91788 1.88882 1.96221 31.52056 2.79968 -21.25988 7.536 -61.29084 -5.54369 -6.27658 2.12406 2.08324 13.42313 -23.34794 13.03294 -10.70829 -12.92922 0.92828 -5.25305 -7.9612 -17.24524 8.6952 7.07483 11.70629
-0.00061 0.57963 0.00017 176.46178 0 3.88413 9.35956 -2.3312 -2.71522 -37.63017 2.84335 5.96188 27.98435 -15.9426 6.54581 10.55867 84.89867 1.93747 1.9691 32.08143 2.58229 -21.52266 7.44487 -60.88572 -5.55094 -6.21577 2.1575 2.25193 12.99857 -23.29953 12.95182 -10.56591 -12.61438 1.05099 -5.04992 -7.97078 -17.55413 8.82704 7.16534 11.83562
-0.00068 0.57992 0.00029 176.32852 0 3.59699 9.43448 -2.05295 -2.63106 -38.22864 2.92594 6.23404 28.49226 -16.22451 6.54257 10.52304 84.87177 1.98998 1.9794 32.77176 2.30523 -21.85441 7.3158 -60.48404 -5.54424 -6.15732 2.1417 2.4416 12.5464 -23.14374 12.82751 -10.37976 -12.28483 1.12882 -4.81178 -7.99184 -17.78573 8.94294 7.24545 11.98704
-0.00065 0.58004 0.00039 176.21594 0 3.36948 9.41531 -1.83187 -2.58359 -38.60285 2.97469 6.42191 28.82948 -16.42215 6.56329 10.52133 84.85838 2.03806 1.98583 33.23123 2.13802 -22.05962 7.2592 -60.07529 -5.5636 -6.09243 2.22855 2.59494 12.117 -23.20216 12.78657 -10.27327 -11.96232 1.30609 -4.63298 -7.9857 -18.19119 9.09819 7.34929 12.09414
-0.00034 0.57972 0.00042 176.17071 0 3.32453 9.13755 -1.78465 -2.65134 -38.30463 2.92244 6.35399 28.64592 -16.36184 6.64145 10.61435 84.88462 2.06898 1.98147 32.98659 2.29556 -21.89108 7.41358 -59.58238 -5.66567 -6.00357 2.58917 2.64057 11.79961 -23.85012 12.97825 -10.40153 -11.6981 1.74269 -4.64201 -7.93868 -19.04988 9.34721 7.51876 12.10042
7e-05 0.57924 0.00043 176.14625 0 3.3417 8.76386 -1.79724 -2.75554 -37.77992 2.83598 6.20026 28.29078 -16.21624 6.74534 10.74217 84.92482 2.09509 1.97209 32.50925 2.56487 -21.59414 7.64112 -59.09612 -5.79279 -5.91018 3.05536 2.64801 11.5078 -24.71828 13.25609 -10.61174 -11.44169 2.28045 -4.71103 -7.85821 -20.08443 9.63669 7.71101 12.05656
0.00045 0.57881 0.00044 176.1084 0 3.32905 8.43145 -1.78192 -2.83766 -37.37161 2.76707 6.0908 28.02808 -16.11606 6.84354 10.8549 84.9589 2.12431 1.96272 32.15612 2.77908 -21.36025 7.83258 -58.65743 -5.9025 -5.825 3.48068 2.67208 11.1947 -25.4951 13.49852 -10.78274 -11.17071 2.77861 -4.74582 -7.76941 -21.04822 9.91389 7.89099 12.01774
0.00077 0.57845 0.00047 176.08549 0 3.32058 8.10931 -1.76715 -2.94168 -36.90953 2.69023 5.96154 27.70702 -15.98983 6.91669 10.96405 84.9919 2.1504 1.96342 31.72936 3.00927 -21.10818 8.03523 -58.01018 -6.03666 -5.71414 3.8761 2.70053 10.9164 -26.23321 13.72446 -10.9592 -10.94125 3.25084 -4.80771 -7.77774 -21.97533 10.16642 8.07983 12.05355
0.00124 0.57792 0.00046 176.03796 0 3.31934 7.74276 -1.76667 -3.00975 -36.50588 2.62168 5.85201 27.46685 -15.89696 7.0477 11.08925 85.0303 2.18137 1.94181 31.40019 3.23356 -20.86361 8.23204 -57.79141 -6.12682 -5.65496 4.35856 2.71024 10.57483 -27.10499 14.00503 -11.14574 -10.63059 3.80053 -4.82859 -7.57867 -23.01959 10.47924 8.25501 11.92304
